<svg id="Layer_1" data-name="Layer 1" xmlns="http://www.w3.org/2000/svg" viewBox="0 0 566.93 566.93"><title>Untitled-2</title><path d="M446,387h0l1.16-1.47c-0.11-1.33.34-1,1.19-1.62,0.4-.28.91-0.51,0.65-1-0.2-.37.82-0.68,0.94-1.19a2.32,2.32,0,0,1,.34-1.16,7.87,7.87,0,0,0,1.28-1c0.68-1.28,3.2-2.27,3.2-3.8,0-.94.77-1,0.4-2.15-0.71-2.13-1.7-3.71-1.87-6.09,0-.28-0.09-0.31.17-0.4,1-.31,2.64-1.3,2.52-2.35-0.2-1.53.51-2,.51-3.15-1.16-.23.45-2.15,0.6-2.75,0.71-2.81.68-2.69,2.95-4.39a9.53,9.53,0,0,1,2.07-.94c1.28-.68,1.11-1.7,3-1.87,1.45-.11,4.28-0.65,5.36-1.62a1.4,1.4,0,0,0,.28-2c-0.91-1.45,2-1,1.39-2.75,3.26-.37-0.54-5.64,3.49-6.43,2-.4,2.52-1.7,3.88-2.32a7.41,7.41,0,0,1,1.79-.85,6,6,0,0,0,1.53-.88,10.53,10.53,0,0,1-.34-1.45c0.17-.88,1-0.11.65-1.22s3.86-1.39,3-4.22c-0.26-.79,1.08-1.7,1.62-2.13,1.25-1,1.22-2.75,1.87-4s0.62-5.22.68-6.69c0.09-2.24,2.15-3.46,2.35-5.24,0.68-.34,0-2.3,1.76-1.9a14.38,14.38,0,0,0,3.06.65l0.06,0,0,0c0.37-.94-0.06-4.34,1.22-4.65a17.16,17.16,0,0,0,6.49-2.64c0.57-4,8.48-3.09,11.51-3.69,3.43-.17,5.13-7.29,2.58-9.47a8.61,8.61,0,0,1-1.73-1.79c-0.51-1,.82-2.3-0.31-3.43-0.71-.71-1.76-1.79-1.76-2.81,0.82-.2,1.42-0.2,1.42-1.22,0.09,0,.06,0,0.06-0.11a12.65,12.65,0,0,1,3.46-.74c0.37,0,.77.11,1.16,0.11,1.25,0,.43-0.26.28-0.82s1.42-6.29,1.81-7l2.41-2.83,1.56,0.11,3.49-2,4.25-8.28,0.34-4.56,3.32-18-4.34-6.09-0.37-6.66-3-13.58-2.58-16.92a3.61,3.61,0,0,1-.23-2.38c0.06,0,.06,0,0.06-0.06a1.39,1.39,0,0,0,1.3-1c0.14-1.73,2.44-1.81,2-3.54a0.67,0.67,0,0,1-.65-0.77l-1.08-3.46-1.76-.11-1.73-6.83-1.36.34-0.17,1.5-1,.14-1.42-1.28a76.32,76.32,0,0,1-5-7.57c-0.79-1.53-1.7-1.62-1.62-3.46,0.11-2.15.71-3.69,0.11-5.92a22.39,22.39,0,0,0-1.36-4.79,6.62,6.62,0,0,0-1.56-.06c-0.31-1.3-.11-2.1-1.47-2.78-0.65-.34-1.87-1.62-2.52-1.62-0.09.26-.34,0.54-0.4,0.74a13,13,0,0,1-4.2-.17c0-.71-0.57-3.17-1.22-3.37-1.3-.43-2.69-1.5-3.74-1.87a21.51,21.51,0,0,0-.6-5.44c-0.43-1.62-1.59-3.29-1.45-5,0.6-3.49-2.24-11-6.63-9.84-1.47.37-1.3,0.31-1.9-1.11-0.68-1.67-2.83-.54-3-3.2-0.14-2.38.48-4.39-.31-6.77a17.55,17.55,0,0,0-2.3-7.31c-0.48-.62-2-2.1-2.07-2.66s-0.28-3,0-3.32c1.45-1.45,1.7-1.7,1.19-3.69-0.28-1.11-1.9-2.07-1.9-3.2,4.28,0,5.33-1.9,5.33-5.84a23.22,23.22,0,0,1,.06-6.58c0.23-.94,1-3.6.77-4.42h-0.06c0-.06-1.25-0.23-1.42-0.34-2.1-1.25-3.69-.11-4.76-2.78-1-2.47-2.61-2.24-5-2.24a4,4,0,0,0-2.41,2.3c-0.14.34-.77,2.58-0.71,1a3.23,3.23,0,0,0,0-1.28,8.59,8.59,0,0,0-1.45-1.42,23,23,0,0,1-2.78-3c-0.45-.6-0.71-1.36-1.19-1.9-0.74-.82-0.91.23-1.62,0.09-0.37-.09-0.74-0.31-1.16-0.4-1.28.11-2.58,1.28-3.86,1.28-0.79,0,.79-1.11,1.36-1.25a0.45,0.45,0,0,1,.2-0.2c0-.26-0.11-0.48-0.11-0.68-0.45-.09-3-0.45-3-0.91-0.09-1,1.76-.88,1.76-2,0-.71,2-0.48,2.44-0.54,1.28-.14,2.27.28,2.27-1.11a15.85,15.85,0,0,0-.65-3.46L461,56c-0.48,1.42-4.62.45-6,.68-0.6.09-1.45,0.77-1.79,0.77l0,0a6.57,6.57,0,0,1,.17-1.81c2.13-.54,4.51-5.84,3.88-7.68-3.15,0-3.34-3.63-6.58-3.63a9.87,9.87,0,0,1-.2-1.81,2.82,2.82,0,0,0,1.39-.48c0.85-.4,1.16-0.28,1.47-1.08a2,2,0,0,0,0-1.36c-0.31-.88-0.62-2.21-1.42-2.78s-1.33-.14-1.7-1.25c-0.23-.77-0.71-2.15-0.06-2.86,1.11-1.25,0-2.38-.74-3.66l-5.84-4.56h0L400.83,67.46l-30.53-2.38L356.67,54.45l-11.14,7.31-16.21,4.39L301,67.86,281.33,81.47A6.9,6.9,0,0,1,283,83.22a2,2,0,0,1-.28,2,1.42,1.42,0,0,0-.34,1.28c0.23,0.68-.77.91-0.54,1.53a2.52,2.52,0,0,1-.06,1.7L272,87.36a5.26,5.26,0,0,0-.54-1.42A1.84,1.84,0,0,1,271,84.5a2,2,0,0,0-.48-0.91c-0.45-.57-1.08-0.28-1.42-1.08-0.4-1-1.64-.14-2.32,0l-7.46-.31-0.48-2a6.91,6.91,0,0,1-.48-4.88,2.27,2.27,0,0,0-.48-1.56c-0.48-1.9-2.32-2.72-3.15-4.08s-0.57-3.2-2.58-3.37c-0.34,0-.88-2.32-1.36-2.83a33.7,33.7,0,0,0-3-1.53c-0.31-.77-1.5-1.56-1.93-2.41-1.73,0-.06,3.06-0.37,3.63-0.57,1-4,2.92-5.07,4s-1.84-.45-2.32,1.64c-0.43,1.9-2.78,2.15-2.81,2.27l-0.37.17-1.59-2-8.67,4.17-2.83,2.81L199.38,63.58l-11.08-.09a4.15,4.15,0,0,0-1.93,1.56c-0.54.85-1.39,0.77-2.18,1.19-0.51.26-.43,0.91-1,1.11-1,.31-0.85,0-1.16,1s-1.53-.23-1.9-0.4c-1.62-.77-2.13,1.28-2.58,2.32-0.14.54-1,1-1.39,1.56a1.11,1.11,0,0,1-1.36.65c-1.16-.11-1.39-1.42-2.78-1a3.47,3.47,0,0,0-2.1,1.84c-0.14.45-.06,1-0.6,1.11-1.16.77-1.22,1-1.22,2.21A4.76,4.76,0,0,1,167.6,79c-0.45.62-.94,0.4-1.45,0.79-0.68.51,0.06,1.53-.79,1.79-1.84.51-.71,0.6-1.3,1.87a3.17,3.17,0,0,1-.94,1.33A4.16,4.16,0,0,0,162,86.37c-0.54,1.45-.79,3.29-1.81,4.48a1.36,1.36,0,0,1-1.16.48c-0.09,0-.09,0,0,0.06l1.56,0.91c0.88,0.31,1.53-1.25,2.07-1.79,0.82-.85,2.81-0.79,3.94-1,1.33-.23.94,3.2,0.62,4-0.77,2,.6,4.54-0.43,6.26-0.91.88-.71,1.13-1.3,2.18s-1.84,1.73-2.69,2.66c-0.51.54,0.28,0.77,0,1.16-0.68,1.08,1,1.13-.51,1.87-0.68.31-1.28,0.51-1,1.39,0.17,0.51-.6.48-0.6,1.11,0,0.31.51,0.94,0,1.11-1.36.43-2.64-.54-3,1.5a4.9,4.9,0,0,1,.85,1.16c0.31,0.11-.62.71-0.71,0.74-1.11.48,0.09,1.62-.43,2.49a20.55,20.55,0,0,0-1.87,4,10.74,10.74,0,0,0-.11,2.86,6.18,6.18,0,0,1-.48,2,2.78,2.78,0,0,0-1,2c1.11,3.26-.65,1.16-1.79,3.12-0.37.62,2.83,4.82,4,4.14,1.33-.82.85,0.6,1.22,1.36,0.77,1.62,2.44,2,2.44,3.63a8.65,8.65,0,0,0,.85,3.49c0.68,1.67,1.45,2.15,2.3,3.6,0.6,1,.11,1.39-0.11,2.38s0.51,2,.2,3.2l-2.64,3.66c-0.34.48-2.41,1.28-2.41,1.81s-0.88.34-1.19,0.85c-0.43.71,1.39,1.47-.2,2.47-1,.6-1,0.91-0.65,2s-1.9,3-1.47,3.83-0.82.34-.82,1a7.25,7.25,0,0,1-.6,3c-0.54,1.84,0,.6-1.42,1.45-1.76,1-.51,5.5-0.34,7.46-0.14,2.07-1.33,1-1,2.86,0.17,1-1.08,2.41-.57,3,0.31,0.4.6,2.1,0.85,2.15,1.11,0.31,1.64-1.56,2.35-1.56,0.45,0,1.67,1.19,2.3,1.39,2,0.62,2,.2,3.49,1.87,0.74,0.85.68,2.49,1.7,3.09,0.48,0.28,1.81.31,2,.94,0.34,1.45.34,2.07,1.9,2.64,0.77,0.28.68-.68,1.56-0.48a2.34,2.34,0,0,0,1.64,0c0.09-.68,1.28-2.49.28-2.75a4.71,4.71,0,0,1,.68-1.36c0.57-.85-0.45-1.3,1.11-2,1-.43,2.41.31,3.37,0.11a15.32,15.32,0,0,0,3.17,2.24,26.52,26.52,0,0,1,2.66,2c0.94,0.74,1.36.48,0.88,1.64-0.4.94,0.37,1.3,0.57,2.07,0.37,1.39-1,1.45.85,2.66,0.94,0.62,2.15,1.11,3,1.79s1.08-.14,1.3-0.82c0.48-1.36,2.1.45,2.83-.17a7,7,0,0,1,3.46-1.36L191.41,207l4.05,1.81,5.87,4.37-0.06,3.26L194,227l-17.91,22.2-29.25,23.22-20.61,25.09a8.94,8.94,0,0,1-1.22,1c-0.71.62-.68,1-1.7,1a1.59,1.59,0,0,0-1.47.37c-0.74.91-1.79-.77-2.69,0.2s-1.19.79-2.15,0.14-1.11-1.5-2.13-.65-1.36,2.81-2,4c-0.45.85-1-.06-1.53,0-0.88.06-.14,0.54-1-0.23l-6.24,4.14h0a1.74,1.74,0,0,0-.31.91,1.1,1.1,0,0,1-.62,1.36c-0.68.23-.31,0.74-0.43,1.3-0.17.88-1.13,2.24-.4,2.72,1.13,0.74.43,1.28,0.28,1.73-0.31,1,1.25.94,0.31,2.38-0.68,1-3.37,3-3.46,4-0.06.68-1.53,2.49-1.76,3.66-0.17.79-1,.94-1.22,1.56-0.71,2.55-3.77-.4-5.58,1.42-0.68.68-3.26,1-4.28,1.42a24.45,24.45,0,0,0-6.58,3.66c-0.11,1.33-1,2.81-1,4.14a2.92,2.92,0,0,0,.82,2.55c0.26,0.37-.23,1.53-0.4,2-0.48,1.25.54,2,.28,3.26a5,5,0,0,1-.85,1.42c-0.37.79,0.06,1-.65,1.87-0.17,1.56-.2,2.07.74,3.32,1.3,1.76.62,2.35,0.31,4.37-0.14.94,0.65,1,.65,1.56a7.48,7.48,0,0,0-.14,1.76,0.3,0.3,0,0,0,.14.06,4.24,4.24,0,0,1,.28,2.47l-9.75,11.25-4.65,20c-1.39.37-2.64-.68-4.08-0.23-1,.31-0.06,1.36-1.47,2.15-2.52,1.42-1.33,3.46-2.66,5.3-1.9,2.66-.62,5.75-0.06,8.67,0.37,1.93,2.52.82,0.48,3-1.13,1.22-.48,2.52-0.65,3.83l-6.83,34.41c1,1.39,2.38,1.13,1.76,3.17-0.31,1,.68,1.93.14,3.26-0.26.6-1,2,.2,2s0.06,3.43-1.56,3.43,0.54,2.58.23,3.12a5.89,5.89,0,0,0-.85,1.22c-0.34,1.33.79,0.74-.54,2.07a1.93,1.93,0,0,0-.54,1.64c0,1-1.22,1.56-1.47,2.64-0.17.71,1,2.27,1,3.49-0.11.79-.94,2.89-0.43,3.63,1.64,2.38.85,3.63,0,6.12-0.37,1.11.11,1.76,0.34,2.81,0.4,1.76-2.24,1-3.69,1.28-1.9.37-.17,1.45,0.17,2.21s-0.82,1.22-.71,2,1.79,2.61,1.11,3.12-1.25.11-1.11,1a11.31,11.31,0,0,1-.14,2.38,24.09,24.09,0,0,1,0,8.19c-0.34,1.73-.94,3.77-0.65,5.58,0.11,0.65-.65,1.11-0.51,1.76,0.45,2.18,3.94,1.87,2.58,4.93a4.74,4.74,0,0,0-.54,3.49c0.2,1.28,1.7,1.79,1.22,3.26l-1.53,6.26h0c1.87-.2,3.66-0.28,5.53-0.37a5.87,5.87,0,0,0,2.32-.6c0.91-.4,1.5-1.42,2.27-2,1.73-.14,3-1.33,5.13-1.33,1.11,0,1.42.62,2.07,1.39,2.47,3,1.22-3.2,3.71-3.2,0-.06.06-0.06,0.14-0.06l3,0.34c0,2.52.4,1.42,1.56,3s1.28,6.07,2.24,8.45c0.48,1.25,3,3.26,4,1.5,0.82-1.42,2.58.28,4.08-1a16.85,16.85,0,0,1,3.51-2.49c0.51-.23,1.79.26,2.15-0.17,0.65-.74-0.26-2.47,1.64-2.58,1.13-.06,1.33-2.21,2.66-2.81,0.79,0.23,3.66.65,3.66-.71,0-.94,1.73-1.42,2.35-1.81s0-1.53.37-2.21c0.26-.51,1.25-1.13,1.28-1.7,0.11-1.62-.11-2.58,1.81-2.86,1.47-.23,1.67.26,2.52-0.82s1.53-2.32,2.64-2.81c1.33-.6,3.12-2.38,3.23-4,0.62-.88.51-2,0.88-2.95,0.6-1.47,3.4-.28,3.4-2.95a3.33,3.33,0,0,1,0-1.59,20.58,20.58,0,0,0,.94-3.37c0.65-2,5,.57,6.21.57s0.79-1,1.64-1.5,2,0.09,2.86.4l0.65,0.6h0l1.47-.14c2.27,3,3.86-.4,6.12.34,0.94,0.31,1.81-.2,2.81-0.2,1.64,0,3.49,1.19,5.13.51,2-.85,2.58-3.91,4.11-5.44,0.31-.31,2.92-0.06,3.51-0.17a6.05,6.05,0,0,0,3.37-1.73l2.81,0.85H439.07l-0.4-49.72,4.2-29.14L436.52,399l9.41-11.85Z" style="fill:none;stroke:#fff;stroke-miterlimit:10;stroke-width:2px"/></svg>